HIERARCHY
ROOT hip
{
	OFFSET 0.000000 0.000000 0.000000 
	CHANNELS 6 Xposition Yposition Zposition Xrotation Zrotation Yrotation
	JOINT abdomen
	{
		OFFSET 0.000000 3.402643 0.000000 
		CHANNELS 3 Xrotation Zrotation Yrotation
		JOINT chest
		{
			OFFSET 0.000000 8.438565 -0.680529 
			CHANNELS 3 Xrotation Zrotation Yrotation
			JOINT neck
			{
				OFFSET 0.000000 10.207942 -0.272212 
				CHANNELS 3 Xrotation Zrotation Yrotation
				JOINT head
				{
					OFFSET 0.000000 3.130431 0.000000 
					CHANNELS 3 Xrotation Zrotation Yrotation
					End Site
					{
						OFFSET 0.000000 3.130435 0.000000 
					}
				}
			}
			JOINT lCollar
			{
				OFFSET 3.470700 6.669187 -0.816635 
				CHANNELS 3 Yrotation Zrotation Xrotation
				JOINT lShldr
				{
					OFFSET 3.198488 0.000000 0.000000 
					CHANNELS 3 Zrotation Yrotation Xrotation
					JOINT lForeArm
					{
						OFFSET 10.139888 0.000000 0.000000 
						CHANNELS 3 Yrotation Zrotation Xrotation
						JOINT lHand
						{
							OFFSET 8.370511 0.000000 0.000000 
							CHANNELS 3 Zrotation Yrotation Xrotation
							End Site
							{
								OFFSET 4.083176 0.000000 0.000000 
							}
						}
					}
				}
			}
			JOINT rCollar
			{
				OFFSET -3.470700 6.669187 -0.816635 
				CHANNELS 3 Yrotation Zrotation Xrotation
				JOINT rShldr
				{
					OFFSET -3.198488 0.000000 0.000000 
					CHANNELS 3 Zrotation Yrotation Xrotation
					JOINT rForeArm
					{
						OFFSET -10.139888 0.000000 0.000000 
						CHANNELS 3 Yrotation Zrotation Xrotation
						JOINT rHand
						{
							OFFSET -8.370511 0.000000 0.000000 
							CHANNELS 3 Zrotation Yrotation Xrotation
							End Site
							{
								OFFSET -4.083176 0.000000 0.000000 
							}
						}
					}
				}
			}
		}
	}
	JOINT lThigh
	{
		OFFSET 5.308129 -1.633274 1.361059 
		CHANNELS 3 Xrotation Zrotation Yrotation
		JOINT lShin
		{
			OFFSET -2.041588 -20.007561 0.000000 
			CHANNELS 3 Xrotation Zrotation Yrotation
			JOINT lFoot
			{
				OFFSET 0.000000 -19.190928 -1.224953 
				CHANNELS 3 Xrotation Yrotation Zrotation
				End Site
				{
					OFFSET 0.000000 -2.449906 4.627600 
				}
			}
		}
	}
	JOINT rThigh
	{
		OFFSET -5.308129 -1.633274 1.361059 
		CHANNELS 3 Xrotation Zrotation Yrotation
		JOINT rShin
		{
			OFFSET 2.041588 -20.007561 0.000000 
			CHANNELS 3 Xrotation Zrotation Yrotation
			JOINT rFoot
			{
				OFFSET 0.000000 -19.190928 -1.224953 
				CHANNELS 3 Xrotation Yrotation Zrotation
				End Site
				{
					OFFSET 0.000000 -2.449906 4.627600 
				}
			}
		}
	}
}
MOTION
Frames: 16
Frame Time: 0.016667
0.069485 50.326466 -5.275491 -3.981044 -13.666404 -48.408997 37.657898 4.305489 4.201503 3.570647 0.898069 2.549086 1.381689 -2.856775 -0.081890 15.043000 -11.706552 30.884855 -16.026075 -6.719349 -0.355941 -39.186653 -0.864040 -6.804309 -126.724159 5.000000 20.588129 -19.307478 -23.957302 -0.689028 8.907836 -2.758966 0.135645 83.447952 62.080006 45.000000 112.804390 -5.000000 6.426479 28.186563 -2.657372 8.241435 -13.123471 31.892437 -2.086530 27.863644 -7.973338 -4.751796 0.426320 1.469773 -14.695553 15.267863 -8.719128 -12.553161 33.946007 3.990563 2.908006 -27.551645 -20.023962 10.519269 
0.030801 50.278099 -5.277075 -3.974633 -13.699472 -48.333336 37.631493 4.240404 4.137288 3.540791 0.878546 2.568616 1.342040 -2.778071 -0.083926 14.982397 -11.705374 30.894346 -15.996842 -6.729107 -0.356446 -39.212975 -0.804214 -6.804745 -126.957954 5.000000 20.585962 -19.140985 -23.844746 -0.740947 8.858917 -2.719948 0.133623 83.311317 62.078892 45.000000 112.830956 -5.000000 6.433695 28.319431 -2.757982 8.158667 -13.366405 31.977877 -2.225098 28.307861 -8.022957 -4.841879 0.121410 1.427757 -14.607280 15.228286 -8.708377 -12.600254 34.247314 4.015072 2.967305 -27.805733 -20.014902 10.378478 
-0.031085 50.188179 -5.246728 -3.975302 -13.798765 -48.111008 37.620739 4.208430 4.014041 3.483159 0.917597 2.549088 1.165289 -2.746186 -0.069015 14.932060 -11.590788 31.000418 -15.839245 -6.692789 -0.343969 -39.582199 -0.582561 -6.879484 -127.505959 5.000000 20.479240 -18.951376 -23.419828 -0.835510 8.761792 -2.747702 0.144777 82.957634 62.002319 45.000000 112.981445 -5.000000 6.438224 28.619131 -2.955984 8.160026 -13.920959 32.093922 -2.594408 29.294172 -8.049407 -5.057220 -0.415045 1.389344 -14.473572 15.316921 -8.699717 -12.728868 34.634243 4.157047 3.087963 -28.215775 -20.018784 10.283664 
-0.108438 50.070560 -5.195092 -3.982689 -13.929804 -47.794788 37.617504 4.196374 3.857311 3.406476 0.985943 2.500267 0.891388 -2.744728 -0.059370 14.909612 -11.401388 31.169289 -15.594687 -6.624521 -0.340453 -40.180210 -0.251843 -7.020887 -128.274689 5.000000 20.288956 -18.746338 -22.792126 -0.947917 8.635036 -2.825722 0.148818 82.471504 61.850983 45.000000 113.205673 -5.000000 6.425608 29.031528 -3.203856 8.213216 -14.674150 32.220699 -3.137449 30.607590 -8.095670 -5.336106 -1.155472 1.370549 -14.297512 15.475547 -8.710521 -12.971728 35.113113 4.342705 3.278374 -28.714249 -19.999334 10.213159 
-0.187076 49.960701 -5.121217 -3.932180 -14.075076 -47.448837 37.608765 4.217482 3.745594 3.292291 1.093323 2.480922 0.519340 -2.703187 -0.045918 14.841742 -11.145763 31.328999 -15.300732 -6.458730 -0.331910 -41.000004 0.299120 -7.270672 -129.179367 5.000000 19.816580 -18.950140 -21.946945 -0.944758 8.449820 -2.952506 0.155385 81.843262 61.527916 45.000000 113.550919 -5.000000 6.412193 29.423069 -3.537602 8.338490 -15.482932 32.306217 -3.742618 31.916983 -8.057055 -5.602862 -1.852427 1.416660 -14.104498 15.740757 -8.700651 -13.281444 35.381771 4.551097 3.479361 -29.157299 -19.951195 10.210176 
-0.270858 49.881886 -4.958389 -3.694419 -14.239608 -46.971996 37.554230 4.397212 3.755964 3.055496 1.308044 2.568818 -0.186101 -2.502776 -0.026448 14.651696 -10.654836 31.410694 -14.789895 -5.922343 -0.304255 -42.742764 1.783927 -7.978016 -130.702667 5.000000 18.237616 -20.684032 -20.297039 -0.576994 8.040627 -3.293846 0.173061 80.673882 60.525303 45.000000 114.377357 -5.000000 6.378914 29.703083 -4.177442 8.723554 -16.424715 32.332760 -4.648789 33.200691 -7.852701 -5.694218 -2.581601 1.435320 -14.058766 16.365946 -8.593797 -13.803966 34.884460 4.956017 3.740417 -29.181444 -19.878815 10.361922 
-0.354640 49.803078 -4.795558 -3.456022 -14.401401 -46.506691 37.500305 4.581722 3.780952 2.819141 1.522752 2.656940 -0.891696 -2.300904 0.002226 14.453309 -10.164969 31.495010 -14.269559 -5.385957 -0.276573 -44.513065 3.251606 -8.737355 -132.337906 5.000000 16.477636 -22.383415 -18.625267 -0.265907 7.621807 -3.644938 0.191235 79.598175 59.507458 45.000000 115.202942 -5.000000 6.325800 29.984745 -4.824097 9.123465 -17.376089 32.335514 -5.560099 34.458015 -7.641689 -5.777518 -3.222678 1.385592 -14.026824 17.012337 -8.474133 -14.343844 34.364479 5.338840 3.988656 -29.224319 -19.756126 10.537612 
-0.446124 49.903503 -4.538694 -2.907291 -14.027007 -46.074146 37.007786 4.311711 4.023978 2.210737 1.902933 3.292414 -1.636915 -1.785666 0.013148 13.894133 -9.161819 31.073868 -13.378654 -4.908084 -0.251055 -44.767342 5.505071 -9.231288 -134.662964 5.000000 12.863705 -28.494633 -15.877669 4.857193 7.096107 -4.113061 0.215457 76.898582 56.286434 45.000000 117.259552 -5.000000 6.134774 30.288015 -6.050447 10.191097 -18.149748 32.035690 -6.523432 34.505394 -7.504924 -5.704728 -3.244519 1.795148 -14.261931 17.863668 -8.279860 -15.464759 32.154385 5.562837 3.818899 -28.000511 -19.168329 11.188975 
-0.539533 50.048729 -4.258321 -2.284289 -13.525473 -45.637264 36.417625 3.939118 4.336458 1.526626 2.331363 4.074784 -2.381234 -1.202833 0.013900 13.238871 -8.035665 30.516127 -12.400147 -4.449715 -0.227441 -44.654057 7.956189 -9.661867 -137.569534 5.000000 8.345517 -35.139221 -11.733973 10.423497 6.531707 -4.620194 0.241680 74.519684 52.415279 45.000000 119.614700 -5.000000 5.781999 30.554087 -7.436996 11.409883 -18.889475 31.642887 -7.485623 34.251415 -7.378082 -5.562507 -3.055321 2.251104 -14.609720 18.793055 -8.055718 -16.717085 29.514744 5.737835 3.541383 -26.469053 -18.390886 11.958248 
-0.603907 50.292534 -3.983817 -1.657418 -12.599083 -45.264084 35.737431 3.194773 4.697996 0.900107 2.544521 4.984118 -3.241645 -0.729133 0.011430 12.264110 -6.832143 29.802902 -11.156277 -3.622637 -0.175135 -42.841282 9.554392 -9.214231 -140.682892 2.169194 4.716603 -40.048080 -8.080520 15.064068 6.143691 -5.205345 0.272801 72.506493 47.420815 41.374729 122.110611 -5.000000 5.016383 30.832365 -8.478376 12.245770 -19.419336 30.962408 -8.140456 33.205429 -7.221633 -5.229762 -2.334384 2.585291 -15.182323 19.509254 -7.900385 -18.072237 26.380651 5.757329 3.158655 -24.473764 -17.674229 12.734013 
-0.624734 50.684208 -3.718113 -1.035723 -11.047553 -44.977242 34.910069 1.863790 5.114009 0.350373 2.444950 6.117057 -4.267453 -0.422501 0.014469 10.782110 -5.521321 28.866291 -9.531404 -2.258621 -0.094970 -38.456726 9.797155 -7.447973 -143.561661 0.489969 2.973009 -43.195419 -6.146379 19.283878 6.020127 -5.878267 0.307650 71.110428 40.767483 35.383915 124.849548 -3.474801 3.617715 31.171406 -8.964530 12.507463 -19.664068 29.781340 -8.360206 31.021755 -6.963501 -4.617443 -0.864115 2.898212 -16.091452 19.901964 -7.881142 -19.488474 22.578829 5.512081 2.553228 -21.710104 -16.987352 13.572891 
-0.645560 51.075871 -3.452412 -0.420538 -9.500995 -44.668362 34.096676 0.549859 5.560821 -0.192586 2.345173 7.240669 -5.283181 -0.118791 -0.001801 9.282130 -4.239929 27.895111 -7.909132 -0.890022 -0.043517 -34.062420 9.889997 -5.667614 -146.507172 -0.998400 1.077142 -46.292606 -3.769344 23.177940 5.897040 -6.560940 0.342962 70.670517 34.064228 30.109465 127.670425 -0.858541 1.976110 31.502092 -9.472393 12.774430 -19.908201 28.609591 -8.566234 28.821005 -6.679623 -4.068681 0.613067 3.173041 -17.013956 20.302261 -7.861454 -20.935545 18.775497 5.237228 1.982431 -18.969030 -16.221195 14.366348 
-0.503614 51.593082 -3.409121 0.585265 -8.256234 -44.725941 34.199783 -0.270069 5.941626 -0.260859 1.818354 7.932588 -6.044863 -0.411384 0.022665 7.300460 -3.887606 28.783060 -6.225564 2.623259 0.206151 -29.982723 8.949244 -4.452517 -144.142838 3.094376 6.605870 -41.582569 -7.889854 20.949839 5.787939 -6.464400 0.328266 70.933975 28.946604 25.753817 128.384232 0.922181 0.598987 32.275963 -8.197126 10.632376 -20.291641 28.329109 -7.945390 26.023085 -6.363050 -3.476613 3.171119 2.325559 -18.430170 19.002615 -7.783606 -20.882504 16.992289 5.003986 1.732524 -16.121342 -16.186617 14.772509 
-0.361668 52.110291 -3.365833 1.594752 -7.016845 -44.760765 34.292732 -1.095438 6.310027 -0.337134 1.301959 8.624660 -6.806579 -0.713634 0.048591 5.324660 -3.497670 29.659920 -4.551147 6.138485 0.359992 -25.936960 7.922746 -3.296529 -142.197418 5.000000 11.823475 -36.511204 -11.502382 18.083235 5.689784 -6.376611 0.323725 71.592278 23.875843 21.565395 129.151688 2.665118 -0.830906 32.999603 -6.870511 8.531780 -20.689648 28.053406 -7.328683 23.227978 -6.020876 -2.899384 5.734893 1.404351 -19.817009 17.699600 -7.724197 -20.816053 15.195547 4.768968 1.478937 -13.251179 -16.084858 15.170079 
-0.108597 52.632233 -3.439439 2.789505 -6.128359 -45.123192 34.805973 -1.385410 6.154964 -0.099102 1.039535 8.692395 -7.402686 -1.247621 0.109753 3.725727 -3.581288 31.954237 -2.975672 10.107754 0.588438 -22.422083 7.528825 -2.674779 -136.798492 5.000000 15.317925 -33.306152 -10.766005 18.592436 5.588691 -5.732931 0.290407 72.374512 21.457733 19.819077 128.934174 3.309207 -1.335342 33.277664 -6.535623 8.066808 -21.029137 28.256102 -6.715925 20.337580 -5.669686 -2.389525 8.784709 0.413110 -20.661695 14.997470 -7.997550 -19.803091 15.941153 4.838506 1.556939 -10.450729 -15.952322 15.602602 
0.218556 53.157318 -3.590974 4.116787 -5.474988 -45.687431 35.596352 -1.316607 5.646552 0.357951 0.962189 8.369987 -7.891987 -1.956870 0.187433 2.345494 -3.921089 35.201435 -1.469633 14.399922 0.831870 -19.239431 7.570857 -2.344810 -129.031998 5.000000 16.636301 -31.356798 -7.577846 21.752985 5.496162 -4.718655 0.237034 73.055962 20.774517 19.661133 128.048752 3.209198 -1.206228 33.264061 -6.882991 8.670856 -21.350933 28.802437 -6.089290 17.412603 -5.299779 -1.933563 12.229128 -0.757493 -21.202682 11.319411 -8.433582 -18.132870 18.392088 5.121896 1.884835 -7.735765 -15.725957 16.078541 
